<svg xmlns="http://www.w3.org/2000/svg" xmlns:xlink="http://www.w3.org/1999/xlink" width="500" zoomAndPan="magnify" viewBox="0 0 375 374.999991" height="500" preserveAspectRatio="xMidYMid meet" version="1.0"><defs><clipPath id="ba7a66800f"><path d="M 15.324219 50.621094 L 359.574219 50.621094 L 359.574219 324.371094 L 15.324219 324.371094 Z M 15.324219 50.621094 " clip-rule="nonzero"/></clipPath><clipPath id="867b207449"><path d="M 0.417969 0.621094 L 214 0.621094 L 214 231 L 0.417969 231 Z M 0.417969 0.621094 " clip-rule="nonzero"/></clipPath><clipPath id="d462027399"><path d="M 212 186 L 295 186 L 295 274.371094 L 212 274.371094 Z M 212 186 " clip-rule="nonzero"/></clipPath><clipPath id="bce764c87e"><path d="M 218 5 L 344.574219 5 L 344.574219 142 L 218 142 Z M 218 5 " clip-rule="nonzero"/></clipPath><clipPath id="429d2936fc"><rect x="0" width="345" y="0" height="275"/></clipPath></defs><g clip-path="url(#ba7a66800f)"><g transform="matrix(1, 0, 0, 1, 15, 50)"><g clip-path="url(#429d2936fc)"><g clip-path="url(#867b207449)"><path fill="#ffffff" d="M 4.421875 109.355469 C 25.625 102.703125 55.734375 91.167969 73.917969 71.460938 C 87.5625 56.671875 96.347656 27.269531 102.011719 4.851562 C 103.441406 -0.824219 111.527344 -0.785156 112.90625 4.917969 C 118.425781 27.890625 127.574219 58.757812 142.703125 74.585938 C 160.183594 92.886719 188.796875 103.40625 209.363281 109.40625 C 214.699219 110.96875 214.789062 118.464844 209.492188 120.144531 C 189.71875 126.394531 163.097656 136.507812 146.75 152.738281 C 129.839844 169.53125 119.441406 202.542969 113.113281 226.222656 C 111.617188 231.804688 103.703125 231.765625 102.257812 226.15625 C 96.59375 204.09375 88.132812 174.75 75.480469 160.550781 C 56.945312 139.761719 26.132812 127.316406 4.34375 120.015625 C -0.8125 118.285156 -0.761719 110.96875 4.421875 109.339844 Z M 4.421875 109.355469 " fill-opacity="1" fill-rule="nonzero"/></g><g clip-path="url(#d462027399)"><path fill="#ffffff" d="M 213.800781 227.847656 C 221.9375 225.296875 233.507812 220.871094 240.484375 213.296875 C 245.71875 207.621094 249.105469 196.320312 251.277344 187.714844 C 251.824219 185.53125 254.933594 185.554688 255.457031 187.742188 C 257.578125 196.566406 261.09375 208.414062 266.898438 214.492188 C 273.613281 221.523438 284.589844 225.558594 292.488281 227.863281 C 294.535156 228.460938 294.574219 231.335938 292.542969 231.988281 C 284.953125 234.382812 274.722656 238.273438 268.445312 244.496094 C 261.953125 250.941406 257.957031 263.621094 255.535156 272.707031 C 254.960938 274.851562 251.914062 274.828125 251.367188 272.679688 C 249.195312 264.207031 245.941406 252.945312 241.085938 247.492188 C 233.964844 239.511719 222.144531 234.734375 213.773438 231.921875 C 211.796875 231.257812 211.808594 228.445312 213.800781 227.824219 Z M 213.800781 227.847656 " fill-opacity="1" fill-rule="nonzero"/></g><g clip-path="url(#bce764c87e)"><path fill="#ffffff" d="M 278.664062 139.332031 C 275.308594 126.261719 270.296875 108.871094 262.796875 100.476562 C 251.8125 88.160156 233.5625 80.792969 220.660156 76.460938 C 217.613281 75.429688 217.640625 71.097656 220.714844 70.132812 C 233.273438 66.1875 251.109375 59.367188 261.886719 47.691406 C 269.96875 38.929688 275.175781 21.515625 278.535156 8.238281 C 279.382812 4.878906 284.171875 4.902344 284.992188 8.277344 C 288.257812 21.890625 293.675781 40.167969 302.644531 49.554688 C 313.003906 60.394531 329.953125 66.632812 342.136719 70.183594 C 345.300781 71.109375 345.351562 75.546875 342.214844 76.550781 C 330.5 80.246094 314.722656 86.25 305.050781 95.855469 C 295.027344 105.800781 288.871094 125.363281 285.121094 139.382812 C 284.238281 142.691406 279.539062 142.664062 278.691406 139.34375 Z M 278.664062 139.332031 " fill-opacity="1" fill-rule="nonzero"/></g></g></g></g></svg>