<svg xmlns="http://www.w3.org/2000/svg" xmlns:xlink="http://www.w3.org/1999/xlink" width="500" zoomAndPan="magnify" viewBox="0 0 375 374.999991" height="500" preserveAspectRatio="xMidYMid meet" version="1.0"><defs><clipPath id="1a9cd79bcc"><path d="M 98.347656 8.746094 L 276.847656 8.746094 L 276.847656 366.496094 L 98.347656 366.496094 Z M 98.347656 8.746094 " clip-rule="nonzero"/></clipPath></defs><g clip-path="url(#1a9cd79bcc)"><path fill="#ff0000" d="M 275.90625 198.496094 C 274.378906 197.035156 271.675781 193.691406 270.472656 192.132812 C 268.671875 189.816406 266.199219 188.113281 263.453125 187.082031 C 261.050781 186.183594 259.492188 184.421875 258.53125 181.976562 C 256.945312 177.945312 253.785156 169.824219 252.8125 165.605469 C 250.695312 156.46875 249.464844 148.230469 240.929688 135.816406 C 240.542969 135.246094 239.355469 127.839844 237.753906 121.445312 C 236.46875 116.3125 235.496094 114.253906 234.667969 111.878906 C 233.75 109.277344 233.636719 105 233.679688 100.796875 C 233.75 93.476562 232.894531 87.355469 230.234375 82.664062 C 227.515625 77.859375 223.382812 75.613281 217.761719 74.027344 C 210.3125 71.925781 204.09375 67.835938 199.917969 63.773438 C 197.871094 61.785156 197.800781 56.324219 198.15625 51.230469 C 199.714844 49 200.675781 46.570312 201.03125 43.925781 C 203.191406 42.980469 204.664062 40.335938 205.222656 37.691406 C 205.878906 34.558594 206.308594 30.582031 203.25 31.125 C 205.4375 16.753906 199.6875 8.746094 187.503906 8.746094 C 175.320312 8.746094 169.558594 16.753906 171.746094 31.113281 C 168.683594 30.566406 169.113281 34.542969 169.773438 37.675781 C 170.328125 40.320312 171.800781 42.964844 173.960938 43.910156 C 174.320312 46.554688 175.261719 48.988281 176.835938 51.21875 C 177.195312 56.292969 177.109375 61.769531 175.078125 63.757812 C 170.886719 67.835938 164.679688 71.910156 157.230469 74.011719 C 151.609375 75.597656 147.492188 77.84375 144.761719 82.648438 C 142.101562 87.339844 141.242188 93.460938 141.316406 100.78125 C 141.359375 104.988281 141.242188 109.261719 140.328125 111.863281 C 139.5 114.238281 138.527344 116.296875 137.238281 121.429688 C 135.636719 127.824219 134.464844 135.230469 134.066406 135.804688 C 125.527344 148.230469 124.296875 156.453125 122.179688 165.589844 C 121.207031 169.808594 118.035156 177.929688 116.460938 181.964844 C 115.503906 184.421875 113.929688 186.167969 111.542969 187.070312 C 108.808594 188.097656 106.335938 189.800781 104.519531 192.117188 C 103.304688 193.675781 100.601562 197.023438 99.085938 198.480469 C 98.199219 199.324219 98.140625 200.3125 99.085938 200.898438 C 99.972656 201.441406 101.117188 201.183594 102.203125 200.28125 C 103.804688 198.96875 105.308594 197.75 106.835938 196.878906 L 105.964844 200.984375 C 105.734375 202.042969 105.378906 203.085938 104.90625 204.058594 C 104.90625 204.058594 100.84375 213.339844 99.429688 216.398438 C 99.058594 217.199219 98.84375 218.15625 99.628906 218.558594 C 100.429688 218.957031 101.230469 218.515625 101.632812 217.742188 C 102.71875 215.667969 105.894531 209.378906 105.894531 209.378906 C 106.09375 208.960938 106.335938 208.5625 106.621094 208.203125 C 107.710938 206.804688 107.796875 207.632812 107.695312 208.460938 C 107.625 209.035156 107.480469 209.59375 107.265625 210.121094 C 107.265625 210.121094 104.019531 217.972656 102.960938 220.589844 C 102.660156 221.316406 102.433594 222.320312 103.203125 222.664062 C 104.164062 223.089844 104.933594 222.433594 105.25 221.789062 C 106.695312 218.84375 110.828125 209.921875 110.828125 209.921875 C 110.957031 209.605469 111.128906 209.304688 111.355469 209.035156 C 111.742188 208.578125 112.328125 208.089844 112.34375 209.089844 C 112.355469 209.476562 112.269531 209.863281 112.128906 210.222656 L 108.453125 220.203125 C 108.136719 221.03125 108.308594 221.992188 109.140625 222.261719 C 109.96875 222.535156 110.769531 222.019531 111.070312 221.289062 L 116.0625 208.949219 C 116.21875 208.546875 116.402344 208.160156 116.660156 207.832031 C 117.648438 206.503906 117.40625 208.375 117.347656 208.632812 C 117.277344 208.992188 116.460938 214.683594 116.074219 216.683594 C 115.917969 217.542969 115.847656 218.457031 116.648438 218.671875 C 117.417969 218.871094 117.933594 218.230469 118.121094 217.472656 C 118.878906 214.382812 121.421875 205.160156 121.421875 205.160156 C 123.054688 201.570312 123.855469 197.851562 123.898438 192.71875 C 123.925781 189.914062 124.941406 187.46875 126.113281 185.496094 C 129.058594 180.535156 137.855469 165.632812 137.855469 165.632812 C 142.488281 158.785156 145.90625 151.578125 147.378906 143.796875 C 148.464844 138.992188 154.742188 125.449219 156.730469 117.457031 C 159.433594 123.976562 161.921875 130.941406 161.578125 138.421875 C 161.234375 145.628906 159.503906 152.449219 159.488281 158.484375 C 154.929688 168.4375 153.371094 181.449219 152.839844 196.363281 C 152.28125 212.367188 153.269531 228.382812 157.429688 244.296875 C 159.5625 252.421875 160.976562 260.300781 159.234375 267.609375 C 157.085938 276.601562 155.699219 285.785156 157.429688 295.507812 C 158.945312 304.085938 162.449219 321.175781 164.496094 329.640625 C 165.140625 332.300781 165.609375 334.789062 165.566406 337.035156 C 165.539062 338.421875 165.683594 342.597656 165.683594 342.597656 C 165.726562 345.085938 165.179688 347.558594 163.996094 349.746094 C 160.304688 356.554688 153.742188 360.273438 155.644531 363.390625 C 157.558594 366.507812 167.898438 366.609375 171.644531 365.851562 C 174.078125 365.363281 175.261719 363.21875 175.390625 360.429688 C 175.433594 359.441406 176.007812 358.570312 176.894531 358.15625 C 179.136719 357.113281 180.453125 355.8125 179.210938 352.808594 C 177.894531 349.621094 178.109375 346.257812 178.796875 343.210938 C 179.367188 340.695312 177.910156 337.949219 176.992188 334.589844 C 175.5625 329.3125 175.75 318.144531 177.238281 308.25 C 178.679688 298.609375 178.882812 289.457031 177.609375 280.421875 C 176.878906 275.285156 178.324219 269.609375 180.195312 263.804688 C 181.511719 259.699219 182.011719 253.023438 181.667969 244.113281 C 181.667969 244.113281 185.972656 211.179688 185.929688 202.84375 L 189.105469 202.84375 C 189.0625 211.179688 193.367188 244.113281 193.367188 244.113281 C 193.039062 253.023438 193.523438 259.714844 194.839844 263.804688 C 196.714844 269.609375 198.15625 275.300781 197.429688 280.421875 C 196.140625 289.445312 196.355469 298.609375 197.800781 308.25 C 199.289062 318.144531 199.488281 329.328125 198.042969 334.589844 C 197.128906 337.9375 195.667969 340.679688 196.242188 343.210938 C 196.929688 346.273438 197.15625 349.632812 195.828125 352.808594 C 194.582031 355.8125 195.898438 357.113281 198.144531 358.15625 C 199.03125 358.570312 199.601562 359.441406 199.644531 360.429688 C 199.773438 363.21875 200.960938 365.363281 203.390625 365.851562 C 207.152344 366.609375 217.492188 366.507812 219.394531 363.390625 C 221.296875 360.285156 214.730469 356.554688 211.042969 349.746094 C 209.855469 347.558594 209.296875 345.085938 209.355469 342.597656 C 209.355469 342.597656 209.484375 338.421875 209.46875 337.035156 C 209.425781 334.789062 209.898438 332.300781 210.542969 329.640625 C 212.585938 321.160156 216.074219 304.085938 217.605469 295.507812 C 219.320312 285.769531 217.949219 276.589844 215.804688 267.609375 C 214.058594 260.300781 215.476562 252.421875 217.605469 244.296875 C 221.78125 228.382812 222.769531 212.367188 222.195312 196.363281 C 221.667969 181.449219 220.109375 168.4375 215.546875 158.484375 C 215.53125 152.449219 213.789062 145.628906 213.457031 138.421875 C 213.101562 130.941406 215.605469 123.976562 218.308594 117.457031 C 220.292969 125.464844 226.570312 139.007812 227.660156 143.796875 C 229.132812 151.578125 232.550781 158.769531 237.183594 165.632812 C 237.183594 165.632812 245.964844 180.535156 248.921875 185.496094 C 250.097656 187.46875 251.109375 189.914062 251.140625 192.71875 C 251.195312 197.851562 251.984375 201.570312 253.613281 205.160156 C 253.613281 205.160156 256.160156 214.382812 256.917969 217.472656 C 257.101562 218.214844 257.617188 218.871094 258.390625 218.671875 C 259.191406 218.457031 259.132812 217.542969 258.960938 216.683594 C 258.574219 214.683594 257.761719 208.992188 257.6875 208.632812 C 257.644531 208.375 257.402344 206.503906 258.375 207.832031 C 258.632812 208.175781 258.820312 208.5625 258.976562 208.949219 L 263.96875 221.289062 C 264.265625 222.03125 265.066406 222.535156 265.898438 222.261719 C 266.726562 221.992188 266.898438 221.03125 266.585938 220.203125 L 262.910156 210.222656 C 262.765625 209.863281 262.679688 209.476562 262.695312 209.089844 C 262.722656 208.105469 263.296875 208.589844 263.679688 209.035156 C 263.910156 209.292969 264.082031 209.59375 264.210938 209.921875 C 264.210938 209.921875 268.34375 218.84375 269.789062 221.789062 C 270.101562 222.433594 270.875 223.089844 271.832031 222.664062 C 272.589844 222.320312 272.375 221.316406 272.074219 220.589844 C 271.003906 217.972656 267.769531 210.121094 267.769531 210.121094 C 267.554688 209.59375 267.398438 209.035156 267.34375 208.460938 C 267.242188 207.632812 267.328125 206.804688 268.414062 208.203125 C 268.699219 208.5625 268.945312 208.960938 269.144531 209.378906 C 269.144531 209.378906 272.320312 215.667969 273.40625 217.742188 C 273.804688 218.515625 274.605469 218.957031 275.40625 218.558594 C 276.207031 218.15625 275.992188 217.214844 275.609375 216.398438 C 274.175781 213.339844 270.128906 204.058594 270.128906 204.058594 C 269.660156 203.085938 269.300781 202.042969 269.070312 200.984375 L 268.199219 196.878906 C 269.730469 197.75 271.246094 198.96875 272.832031 200.28125 C 273.921875 201.183594 275.0625 201.441406 275.949219 200.898438 C 276.851562 200.324219 276.792969 199.339844 275.90625 198.496094 Z M 275.90625 198.496094 " fill-opacity="1" fill-rule="nonzero"/></g></svg>